Coordinates
version=1
nRows=38
nColumns=12
inDegrees=yes

Units are S.I. units (second, meters, Newtons, ...)
Angles are in degrees

endheader
time	SC_y	SC_z	SC_x	AC_y	AC_z	AC_x	GH_y	GH_z	GH_yy	EL_x	PS_y
       0.0              -32.67          22.53          20.71          60.07          9.768          6.512          122.2          80.55          104.4          66.35          127.6
   0.02933              -32.67          22.53          20.72          60.07          9.765          6.513          122.2          80.54          104.3          66.35          127.6
   0.05867              -32.68          22.53          20.73          60.07          9.763          6.514          122.2          80.54          104.3          66.35          127.6
     0.088              -32.68          22.52          20.74          60.07          9.761          6.516          122.2          80.53          104.3          66.35          127.6
    0.1173              -32.68          22.52          20.75          60.07          9.758          6.517          122.2          80.53          104.3          66.35          127.6
    0.1467              -32.69          22.52          20.76          60.07          9.756          6.519          122.2          80.52          104.3          66.34          127.6
     0.176              -32.69          22.52          20.77          60.07          9.753          6.521          122.2          80.51          104.2          66.34          127.6
    0.2053               -32.7          22.51          20.78          60.07           9.75          6.522          122.1          80.51          104.2          66.34          127.6
    0.2347               -32.7          22.51          20.79          60.07          9.747          6.524          122.1           80.5          104.2          66.34          127.6
     0.264              -32.71          22.51          20.81          60.07          9.743          6.526          122.1          80.49          104.1          66.33          127.6
    0.2933              -32.71           22.5          20.82          60.07          9.739          6.529          122.1          80.48          104.1          66.33          127.6
    0.3227              -32.72           22.5          20.84          60.07          9.735          6.531          122.1          80.47          104.1          66.33          127.5
     0.352              -32.72           22.5          20.85          60.06          9.731          6.534          122.1          80.46          104.0          66.32          127.5
    0.3813              -32.73          22.49          20.87          60.06          9.726          6.537          122.0          80.45          104.0          66.32          127.5
    0.4107              -32.74          22.49          20.89          60.06          9.721           6.54          122.0          80.44          104.0          66.32          127.5
      0.44              -32.75          22.48          20.91          60.06          9.716          6.543          122.0          80.43          103.9          66.31          127.5
    0.4693              -32.75          22.48          20.93          60.06           9.71          6.547          121.9          80.41          103.9          66.31          127.5
    0.4987              -32.76          22.47          20.96          60.06          9.703          6.551          121.9           80.4          103.8           66.3          127.5
     0.528              -32.77          22.46          20.99          60.06          9.696          6.555          121.9          80.38          103.7           66.3          127.5
    0.5573              -32.79          22.45          21.02          60.06          9.688           6.56          121.8          80.37          103.7          66.29          127.5
    0.5867               -32.8          22.45          21.05          60.06           9.68          6.565          121.8          80.35          103.6          66.28          127.5
     0.616              -32.81          22.44          21.09          60.06           9.67           6.57          121.8          80.32          103.5          66.28          127.4
    0.6453              -32.83          22.43          21.13          60.06           9.66          6.577          121.7           80.3          103.4          66.27          127.4
    0.6747              -32.84          22.42          21.17          60.06          9.649          6.584          121.7          80.27          103.3          66.26          127.4
     0.704              -32.86           22.4          21.22          60.06          9.636          6.591          121.6          80.25          103.2          66.25          127.4
    0.7333              -32.88          22.39          21.28          60.06          9.621            6.6          121.5          80.21          103.1          66.24          127.4
    0.7627              -32.91          22.38          21.34          60.06          9.605           6.61          121.4          80.18          103.0          66.23          127.3
     0.792              -32.93          22.36          21.41          60.06          9.587          6.621          121.4          80.14          102.8          66.21          127.3
    0.8213              -32.96          22.34          21.48          60.06          9.567          6.633          121.3          80.09          102.6           66.2          127.3
    0.8507              -32.99          22.32          21.57          60.06          9.544          6.647          121.1          80.04          102.4          66.18          127.3
      0.88              -33.03          22.29          21.68          60.06          9.518          6.663          121.0          79.98          102.2          66.16          127.2
    0.9093              -33.08          22.26          21.79          60.06          9.487          6.681          120.9          79.91          102.0          66.13          127.2
    0.9387              -33.13          22.23          21.93          60.06          9.452          6.702          120.7          79.83          101.7          66.11          127.1
     0.968              -33.18          22.19          22.08          60.06          9.412          6.727          120.5          79.74          101.3          66.08          127.1
    0.9973              -33.25          22.14          22.27          60.06          9.364          6.755          120.3          79.63          100.9          66.04          127.0
     1.027              -33.33          22.09          22.48          60.05          9.308          6.789          120.0           79.5          100.4           66.0          126.9
     1.056              -33.43          22.03          22.74          60.05          9.242           6.83          119.7          79.35          99.85          65.94          126.8
     1.085              -33.54          21.95          23.05          60.05          9.162          6.878          119.3          79.17          99.17          65.88          126.7
